<svg width="367" height="64" viewBox="0 0 367 64" fill="none" xmlns="http://www.w3.org/2000/svg">
<path d="M31.8442 0.703358C49.1158 0.703392 63.1176 14.7052 63.1176 31.9768C63.1174 48.9786 49.5495 62.8116 32.6508 63.2395L31.8442 63.2493H8.31877C7.15906 63.2493 6.0595 62.993 5.0717 62.5364L17.5942 50.1545C25.7994 42.0406 38.9278 41.7923 47.434 49.5901L50.1332 46.8909L49.8344 46.5647C42.0951 38.1224 42.0838 25.1672 49.808 16.7112L47.1088 14.0129C38.6528 21.7366 25.6984 21.7246 17.2563 13.9856L16.9291 13.6868L14.2299 16.386C22.0498 24.9159 21.8518 38.067 13.7787 46.3577L1.42717 59.0412C0.881023 57.9802 0.570737 56.7777 0.57072 55.5022V31.9768C0.57072 14.7052 14.5725 0.703358 31.8442 0.703358Z" fill="#C5E846"/>
<path d="M111.436 14.9588V20.0941H100.661V47.2836H94.7467V20.0941H83.8801V14.9588H111.436ZM131.662 23.808C134.504 23.808 136.72 24.7097 138.31 26.5132C139.93 28.2861 140.74 30.8537 140.74 34.2161V47.2836H134.871V35.0873C134.871 32.8864 134.458 31.3122 133.633 30.3647C132.838 29.4171 131.524 28.9433 129.69 28.9433C127.428 28.9433 125.655 29.7075 124.371 31.2358C123.087 32.7336 122.446 35.0261 122.446 38.1134V47.2836H116.531V13.5833H122.446V27.5219L121.391 31.0524H122.904C123.393 28.8821 124.371 27.1398 125.839 25.8254C127.336 24.4805 129.277 23.808 131.662 23.808ZM146.642 47.2836V27.4302C146.642 26.2687 146.948 25.3822 147.559 24.7709C148.201 24.1595 149.103 23.8691 150.264 23.8997L164.432 24.2665V29.4018L152.557 29.0808V47.2836H146.642ZM167.239 35.4999C167.239 31.893 168.324 29.0503 170.494 26.9717C172.665 24.8626 175.492 23.808 178.977 23.808C182.461 23.808 185.258 24.8167 187.367 26.8341C189.507 28.8516 190.577 31.5873 190.577 35.0414V36.9672H172.833C172.894 38.7706 173.475 40.2226 174.575 41.323C175.706 42.3928 177.402 42.9278 179.664 42.9278C182.935 42.9278 184.876 41.6898 185.487 39.2138H191.402C191.005 41.323 189.813 43.2793 187.826 45.0827C185.839 46.8556 183.119 47.7421 179.664 47.7421C175.599 47.7421 172.512 46.5805 170.403 44.2574C168.293 41.9343 167.239 39.0152 167.239 35.4999ZM172.833 33.3908H184.983C184.983 32.0153 184.479 30.8843 183.47 29.9978C182.492 29.1114 180.994 28.6682 178.977 28.6682C176.959 28.6682 175.431 29.1267 174.392 30.0437C173.352 30.9301 172.833 32.0458 172.833 33.3908ZM195.559 40.9562C195.559 38.9693 196.216 37.3951 197.53 36.2336C198.875 35.072 201.076 34.3078 204.133 33.941L212.111 32.9781C212.019 30.1048 210.246 28.6682 206.792 28.6682C205.172 28.6682 203.873 29.035 202.895 29.7686C201.947 30.4716 201.474 31.5415 201.474 32.9781H195.88C195.88 30.2577 196.889 28.0568 198.906 26.3756C200.923 24.6639 203.552 23.808 206.792 23.808C210.124 23.808 212.829 24.725 214.908 26.559C216.986 28.3625 218.026 30.9607 218.026 34.3537V42.1483H221.373V47.2836H216.696C215.687 47.2836 214.908 47.0085 214.358 46.4583C213.838 45.9081 213.578 45.1439 213.578 44.1657V43.3863L214.495 40.7728H212.936C211.836 45.419 208.749 47.7421 203.674 47.7421C202.024 47.7421 200.618 47.5128 199.456 47.0543C198.325 46.5958 197.5 45.9845 196.98 45.2203C196.461 44.4561 196.094 43.7378 195.88 43.0653C195.666 42.3623 195.559 41.6592 195.559 40.9562ZM201.474 39.9475C201.474 40.8339 201.764 41.5064 202.345 41.9649C202.956 42.3928 203.751 42.6068 204.729 42.6068C206.96 42.6068 208.749 42.0566 210.094 40.9562C211.439 39.8252 212.111 38.358 212.111 36.5545L205.188 37.4257C203.873 37.5785 202.926 37.8383 202.345 38.2051C201.764 38.5414 201.474 39.1221 201.474 39.9475ZM250.053 47.2836H244.138V45.0827L245.239 41.5981H243.68C242.304 45.6941 239.248 47.7421 234.51 47.7421C231.3 47.7421 228.763 46.6111 226.899 44.3491C225.065 42.0872 224.148 39.2291 224.148 35.775C224.148 32.321 225.065 29.4629 226.899 27.201C228.763 24.939 231.3 23.808 234.51 23.808C239.248 23.808 242.304 25.8713 243.68 29.9978H245.239L244.138 26.4673V13.5833H250.053V47.2836ZM242.259 40.9103C243.512 39.7793 244.138 38.0676 244.138 35.775C244.138 33.4825 243.512 31.7707 242.259 30.6398C241.005 29.5088 239.263 28.9433 237.032 28.9433C232.385 28.9433 230.062 31.2205 230.062 35.775C230.062 40.3296 232.385 42.6068 237.032 42.6068C239.263 42.6068 241.005 42.0413 242.259 40.9103ZM256.071 47.2836V13.5833H261.986V26.4673L260.931 29.9978H262.444C263.82 25.8713 266.877 23.808 271.615 23.808C274.824 23.808 277.346 24.939 279.18 27.201C281.044 29.4629 281.977 32.321 281.977 35.775C281.977 39.2291 281.044 42.0872 279.18 44.3491C277.346 46.6111 274.824 47.7421 271.615 47.7421C266.877 47.7421 263.82 45.6941 262.444 41.5981H260.931L261.986 45.0827V47.2836H256.071ZM263.866 30.6398C262.612 31.7707 261.986 33.4825 261.986 35.775C261.986 38.0676 262.612 39.7793 263.866 40.9103C265.15 42.0413 266.892 42.6068 269.093 42.6068C273.739 42.6068 276.062 40.3296 276.062 35.775C276.062 31.2205 273.739 28.9433 269.093 28.9433C266.892 28.9433 265.15 29.5088 263.866 30.6398ZM286.116 40.9562C286.116 38.9693 286.773 37.3951 288.087 36.2336C289.432 35.072 291.633 34.3078 294.69 33.941L302.668 32.9781C302.576 30.1048 300.803 28.6682 297.349 28.6682C295.729 28.6682 294.43 29.035 293.452 29.7686C292.504 30.4716 292.031 31.5415 292.031 32.9781H286.437C286.437 30.2577 287.446 28.0568 289.463 26.3756C291.48 24.6639 294.109 23.808 297.349 23.808C300.681 23.808 303.386 24.725 305.465 26.559C307.543 28.3625 308.583 30.9607 308.583 34.3537V42.1483H311.93V47.2836H307.253C306.244 47.2836 305.465 47.0085 304.915 46.4583C304.395 45.9081 304.135 45.1439 304.135 44.1657V43.3863L305.052 40.7728H303.493C302.393 45.419 299.306 47.7421 294.231 47.7421C292.581 47.7421 291.175 47.5128 290.013 47.0543C288.882 46.5958 288.057 45.9845 287.537 45.2203C287.018 44.4561 286.651 43.7378 286.437 43.0653C286.223 42.3623 286.116 41.6592 286.116 40.9562ZM292.031 39.9475C292.031 40.8339 292.321 41.5064 292.902 41.9649C293.513 42.3928 294.308 42.6068 295.286 42.6068C297.517 42.6068 299.306 42.0566 300.651 40.9562C301.996 39.8252 302.668 38.358 302.668 36.5545L295.745 37.4257C294.43 37.5785 293.483 37.8383 292.902 38.2051C292.321 38.5414 292.031 39.1221 292.031 39.9475ZM336.244 41.0937C336.244 45.526 332.897 47.7421 326.202 47.7421C322.29 47.7421 319.386 46.9779 317.491 45.4496C315.626 43.8906 314.694 41.7051 314.694 38.8929H320.609C320.609 41.7662 322.519 43.2029 326.34 43.2029C328.999 43.2029 330.329 42.4693 330.329 41.002C330.329 40.2378 329.993 39.6571 329.32 39.2597C328.648 38.8623 327.44 38.3885 325.698 37.8383C325.239 37.7161 324.888 37.6091 324.643 37.5174C321.617 36.5087 319.63 35.7139 318.683 35.1331C316.757 33.9104 315.779 32.2445 315.748 30.1354C315.748 28.1485 316.574 26.6049 318.224 25.5045C319.875 24.3735 322.183 23.808 325.148 23.808C328.663 23.808 331.261 24.5875 332.942 26.1464C334.624 27.6747 335.464 29.6005 335.464 31.9236H329.549C329.549 29.5393 328.067 28.3472 325.102 28.3472C322.809 28.3472 321.663 28.9891 321.663 30.273C321.663 30.976 322.076 31.5415 322.901 31.9694C323.726 32.3974 325.209 32.9629 327.349 33.6659C330.405 34.6746 332.377 35.4388 333.263 35.9584C335.25 37.1811 336.244 38.8929 336.244 41.0937ZM340.069 35.4999C340.069 31.893 341.154 29.0503 343.325 26.9717C345.495 24.8626 348.322 23.808 351.807 23.808C355.292 23.808 358.089 24.8167 360.198 26.8341C362.338 28.8516 363.407 31.5873 363.407 35.0414V36.9672H345.663C345.724 38.7706 346.305 40.2226 347.405 41.323C348.536 42.3928 350.233 42.9278 352.495 42.9278C355.766 42.9278 357.707 41.6898 358.318 39.2138H364.233C363.835 41.323 362.643 43.2793 360.656 45.0827C358.669 46.8556 355.949 47.7421 352.495 47.7421C348.429 47.7421 345.342 46.5805 343.233 44.2574C341.124 41.9343 340.069 39.0152 340.069 35.4999ZM345.663 33.3908H357.814C357.814 32.0153 357.309 30.8843 356.3 29.9978C355.322 29.1114 353.825 28.6682 351.807 28.6682C349.79 28.6682 348.261 29.1267 347.222 30.0437C346.183 30.9301 345.663 32.0458 345.663 33.3908Z" fill="white"/>
</svg>
